<mxfile host="65bd71144e">
    <diagram id="l_3EztwkF13Zctmzr-sn" name="Page-1">
        <mxGraphModel dx="1147" dy="529" grid="1" gridSize="10" guides="1" tooltips="1" connect="1" arrows="1" fold="1" page="1" pageScale="1" pageWidth="827" pageHeight="1169" math="0" shadow="0">
            <root>
                <mxCell id="0"/>
                <mxCell id="1" parent="0"/>
                <mxCell id="50" value="" style="whiteSpace=wrap;html=1;shadow=0;dashed=1;dashPattern=1 1;strokeWidth=5;strokeColor=#64D1ED;" parent="1" vertex="1">
                    <mxGeometry x="70" y="80" width="910" height="350" as="geometry"/>
                </mxCell>
                <mxCell id="58" value="Spoke 1 VNET" style="verticalLabelPosition=bottom;html=1;verticalAlign=top;align=center;strokeColor=none;fillColor=#00BEF2;shape=mxgraph.azure.virtual_network;pointerEvents=1;shadow=0;" parent="1" vertex="1">
                    <mxGeometry x="895" y="360" width="50" height="27.500000000000004" as="geometry"/>
                </mxCell>
                <mxCell id="59" value="Peering" style="aspect=fixed;html=1;points=[];align=center;image;fontSize=12;image=img/lib/azure2/networking/Bastions.svg;shadow=0;" parent="1" vertex="1">
                    <mxGeometry x="864" y="432" width="57.99999999999999" height="68" as="geometry"/>
                </mxCell>
                <mxCell id="69" value="Infrastructure Subnet" style="points=[[0,0],[0.25,0],[0.5,0],[0.75,0],[1,0],[1,0.25],[1,0.5],[1,0.75],[1,1],[0.75,1],[0.5,1],[0.25,1],[0,1],[0,0.75],[0,0.5],[0,0.25]];outlineConnect=0;gradientColor=none;html=1;whiteSpace=wrap;fontSize=12;fontStyle=0;container=1;pointerEvents=0;collapsible=0;recursiveResize=0;shape=mxgraph.aws4.group;grIcon=mxgraph.aws4.group_security_group;grStroke=0;strokeColor=#147EBA;fillColor=#E6F2F8;verticalAlign=top;align=right;spacingLeft=30;fontColor=#147EBA;dashed=0;shadow=0;labelPosition=center;verticalLabelPosition=middle;flipH=1;spacingRight=34;" parent="1" vertex="1">
                    <mxGeometry x="300" y="250" width="300" height="150" as="geometry"/>
                </mxCell>
                <mxCell id="96" value="Azure Container&lt;br&gt;App Environment" style="aspect=fixed;html=1;points=[];align=center;image;fontSize=12;image=img/lib/azure2/other/Container_App_Environments.svg;shadow=0;" parent="69" vertex="1">
                    <mxGeometry x="40" y="34" width="68" height="68" as="geometry"/>
                </mxCell>
                <mxCell id="75" value="Application Gateway Subnet" style="points=[[0,0],[0.25,0],[0.5,0],[0.75,0],[1,0],[1,0.25],[1,0.5],[1,0.75],[1,1],[0.75,1],[0.5,1],[0.25,1],[0,1],[0,0.75],[0,0.5],[0,0.25]];outlineConnect=0;gradientColor=none;html=1;whiteSpace=wrap;fontSize=12;fontStyle=0;container=1;pointerEvents=0;collapsible=0;recursiveResize=0;shape=mxgraph.aws4.group;grIcon=mxgraph.aws4.group_security_group;grStroke=0;strokeColor=#147EBA;fillColor=#E6F2F8;verticalAlign=top;align=left;spacingLeft=30;fontColor=#147EBA;dashed=0;shadow=0;" parent="1" vertex="1">
                    <mxGeometry x="630" y="248.5" width="222" height="151" as="geometry"/>
                </mxCell>
                <mxCell id="77" value="Azure Application Gateway&#10;" style="shape=image;verticalLabelPosition=bottom;verticalAlign=top;imageAspect=1;aspect=fixed;image=data:image/svg+xml,PHN2ZyB4bWxucz0iaHR0cDovL3d3dy53My5vcmcvMjAwMC9zdmciIHZpZXdCb3g9IjAgMCAxOCAxOCI+PGRlZnM+PGxpbmVhckdyYWRpZW50IGlkPSJiIiB4MT0iOSIgeTE9IjE5LjQ1IiB4Mj0iOSIgeTI9Ii0uNjUiIGdyYWRpZW50VHJhbnNmb3JtPSJyb3RhdGUoNDUgOS4wMDMgOC45OTkpIiBncmFkaWVudFVuaXRzPSJ1c2VyU3BhY2VPblVzZSI+PHN0b3Agb2Zmc2V0PSIwIiBzdG9wLWNvbG9yPSIjNWU5NjI0Ii8+PHN0b3Agb2Zmc2V0PSIuMTQiIHN0b3AtY29sb3I9IiM2MjljMjUiLz48c3RvcCBvZmZzZXQ9IjEiIHN0b3AtY29sb3I9IiM3NmJjMmQiLz48L2xpbmVhckdyYWRpZW50PjxsaW5lYXJHcmFkaWVudCBpZD0iYSIgeDE9IjcuNTEiIHkxPSI2LjM5IiB4Mj0iNy41IiB5Mj0iNS4xMSIgZ3JhZGllbnRVbml0cz0idXNlclNwYWNlT25Vc2UiPjxzdG9wIG9mZnNldD0iMCIgc3RvcC1jb2xvcj0iI2NjYyIvPjxzdG9wIG9mZnNldD0iLjEyIiBzdG9wLWNvbG9yPSIjZDdkN2Q3Ii8+PHN0b3Agb2Zmc2V0PSIuNDIiIHN0b3AtY29sb3I9IiNlYmViZWIiLz48c3RvcCBvZmZzZXQ9Ii43MiIgc3RvcC1jb2xvcj0iI2Y4ZjhmOCIvPjxzdG9wIG9mZnNldD0iMSIgc3RvcC1jb2xvcj0iI2ZjZmNmYyIvPjwvbGluZWFyR3JhZGllbnQ+PGxpbmVhckdyYWRpZW50IGlkPSJjIiB4MT0iOS4zNyIgeTE9IjcuNjciIHgyPSI5LjM3IiB5Mj0iNi41MiIgaHJlZj0iI2EiLz48L2RlZnM+PHJlY3QgeD0iMi43IiB5PSIyLjciIHdpZHRoPSIxMi42IiBoZWlnaHQ9IjEyLjYiIHJ4PSIuNTgiIHRyYW5zZm9ybT0icm90YXRlKC00NSA4Ljk5OSA5LjAwMykiIGZpbGw9InVybCgjYikiLz48ZyBmaWxsPSIjZmZmIj48cGF0aCBkPSJNMTAuOTMgMTAuNTRoMi44OWEuMTEuMTEgMCAwMC4xMS0uMTFWNy41NGEuMS4xIDAgMDAtLjE4LS4wN2wtLjguNzl2LjA2YS4xMS4xMSAwIDAxLS4xNSAwTDkuMjcgNC44M2EuMTEuMTEgMCAwMC0uMTUgMGwtLjkuOWEuMTEuMTEgMCAwMDAgLjE1bDMuNDkgMy40OGEuMTEuMTEgMCAwMTAgLjE1bC0uMDYuMDUtLjc5LjhhLjEuMSAwIDAwLjA3LjE4eiIvPjxwYXRoIGQ9Ik02Ljg3IDEwLjU0SDRhLjExLjExIDAgMDEtLjEtLjExVjcuNTRhLjEuMSAwIDAxLjE4LS4wN2wuNzkuNzkuMDYuMDZhLjEuMSAwIDAwLjE0IDBsMy40Ny0zLjQ5YS4xMS4xMSAwIDAxLjE1IDBsLjg5LjlhLjA5LjA5IDAgMDEwIC4xNUw2LjEgOS4zNmEuMTEuMTEgMCAwMDAgLjE1bC4wNS4wNS44LjhhLjExLjExIDAgMDEtLjA4LjE4eiIvPjxwYXRoIGQ9Ik02Ljc4IDEzLjE2bDIgMmEuMTEuMTEgMCAwMC4xNSAwbDItMmEuMS4xIDAgMDAtLjA3LS4xOEg5Ljc0YS4xMS4xMSAwIDAxLS4xMS0uMVY4YS4xLjEgMCAwMC0uMS0uMTFIOC4yNmEuMS4xIDAgMDAtLjEuMTF2NC45M2EuMTEuMTEgMCAwMS0uMTEuMWgtMS4yYS4xLjEgMCAwMC0uMDcuMTN6Ii8+PC9nPjxwYXRoIGQ9Ik0xMC42OCA3Ljc1QTIuNzYgMi43NiAwIDExNy4zIDMuMzlhMi43NiAyLjc2IDAgMDEzLjM1IDQuMzgiIGZpbGw9IiMwMDc4ZDQiLz48Y2lyY2xlIGN4PSI3LjUiIGN5PSI1LjQ4IiByPSIuODgiIGZpbGw9InVybCgjYSkiLz48cGF0aCBkPSJNNi42MiA3YTIgMiAwIDAwLjIuM2MuMDYuMDguMTIuMTQuMTguMjFhNi4xNiA2LjE2IDAgMDEuMzUtMS4xMi44NS44NSAwIDAxLS40Ni0uMjQgNS42MiA1LjYyIDAgMDAtLjI3Ljg1em0uNTktMi4zNWE0LjIxIDQuMjEgMCAwMS0uMjMtMSAzLjI3IDMuMjcgMCAwMC0uMzUuNDggNC41NSA0LjU1IDAgMDAuMTguNzYuODEuODEgMCAwMS40LS4yNHptLjk0IDEuNDNhLjg5Ljg5IDAgMDEtLjQ4LjI3IDMuMjEgMy4yMSAwIDAwLjQ3LjQxIDMuNTkgMy41OSAwIDAwLjY2LjQxdi0uMDhhLjU4LjU4IDAgMDEuMi0uNDEgMy40NiAzLjQ2IDAgMDEtLjg1LS42em0yLjY4IDEuMDhhMy43NCAzLjc0IDAgMDEtLjg5LS4xLjU2LjU2IDAgMDEtLjE2LjQgNCA0IDAgMDAxLjEuMDggMi4xNiAyLjE2IDAgMDAuMzctLjQzeiIgb3BhY2l0eT0iLjU1IiBmaWxsPSIjZjJmMmYyIi8+PGNpcmNsZSBjeD0iOS4zNyIgY3k9IjcuMDkiIHI9Ii41NyIgZmlsbD0idXJsKCNjKSIvPjxjaXJjbGUgY3g9IjEwLjY4IiBjeT0iNS42NyIgcj0iLjYxIiBmaWxsPSIjZjJmMmYyIi8+PHBhdGggZD0iTTkuMjIgNC4zMmE0LjQzIDQuNDMgMCAwMTEuOTItLjQ3IDMgMyAwIDAwLS40OC0uNDcgNC45IDQuOSAwIDAwLTEuNTIuMzYgMi45MSAyLjkxIDAgMDAtLjMuMTdBNS40NSA1LjQ1IDAgMDE4LjE5IDNhMi42NyAyLjY3IDAgMDAtLjM2LjE0IDYuMSA2LjEgMCAwMC42NyAxIDQuMDUgNC4wNSAwIDAwLS42OC41Ni44OS44OSAwIDAxLjQzLjMgMy40NyAzLjQ3IDAgMDEuNjMtLjQ5IDEwLjI1IDEwLjI1IDAgMDAxLjE5IDEgLjU3LjU3IDAgMDEuMi0uMzIgNy44MSA3LjgxIDAgMDEtMS4wNS0uODd6TTExLjYgNmgtLjE4bC0uMTEtLjA2YS41Mi41MiAwIDAxLS4yLjNsLjEyLjA3YS40MS40MSAwIDAwLjExLjA3bC4yOC4xNWEyLjM3IDIuMzcgMCAwMC4wOS0uMzZ6IiBvcGFjaXR5PSIuNTUiIGZpbGw9IiNmMmYyZjIiLz48Y2lyY2xlIGN4PSI3LjUiIGN5PSI1LjQ4IiByPSIuODgiIGZpbGw9IiNmMmYyZjIiLz48Y2lyY2xlIGN4PSI5LjM3IiBjeT0iNy4wOSIgcj0iLjU3IiBmaWxsPSIjZjJmMmYyIi8+PC9zdmc+;shadow=0;" parent="75" vertex="1">
                    <mxGeometry x="81.5" y="40" width="59" height="59" as="geometry"/>
                </mxCell>
                <mxCell id="106" value="Private Link. Subnet" style="points=[[0,0],[0.25,0],[0.5,0],[0.75,0],[1,0],[1,0.25],[1,0.5],[1,0.75],[1,1],[0.75,1],[0.5,1],[0.25,1],[0,1],[0,0.75],[0,0.5],[0,0.25]];outlineConnect=0;gradientColor=none;html=1;whiteSpace=wrap;fontSize=12;fontStyle=0;container=1;pointerEvents=0;collapsible=0;recursiveResize=0;shape=mxgraph.aws4.group;grIcon=mxgraph.aws4.group_security_group;grStroke=0;strokeColor=#147EBA;fillColor=#E6F2F8;verticalAlign=top;align=left;spacingLeft=30;fontColor=#147EBA;dashed=0;shadow=0;" parent="1" vertex="1">
                    <mxGeometry x="102" y="250" width="168" height="150" as="geometry"/>
                </mxCell>
                <mxCell id="108" value="Azure Container Registry" style="shape=image;verticalLabelPosition=bottom;verticalAlign=top;imageAspect=1;aspect=fixed;image=data:image/svg+xml,PHN2ZyBkYXRhLW5hbWU9ImZsdWVudF9pY29ucyIgeG1sbnM9Imh0dHA6Ly93d3cudzMub3JnLzIwMDAvc3ZnIiB2aWV3Qm94PSIwIDAgMTggMTgiPjxkZWZzPjxsaW5lYXJHcmFkaWVudCBpZD0iYSIgeDE9IjguNjciIHkxPSIxNy41NCIgeDI9IjguNjciIHkyPSItMS4xOSIgZ3JhZGllbnRVbml0cz0idXNlclNwYWNlT25Vc2UiPjxzdG9wIG9mZnNldD0iMCIgc3RvcC1jb2xvcj0iIzAwNzhkNCIvPjxzdG9wIG9mZnNldD0iLjE2IiBzdG9wLWNvbG9yPSIjMTM4MGRhIi8+PHN0b3Agb2Zmc2V0PSIuNTMiIHN0b3AtY29sb3I9IiMzYzkxZTUiLz48c3RvcCBvZmZzZXQ9Ii44MiIgc3RvcC1jb2xvcj0iIzU1OWNlYyIvPjxzdG9wIG9mZnNldD0iMSIgc3RvcC1jb2xvcj0iIzVlYTBlZiIvPjwvbGluZWFyR3JhZGllbnQ+PGxpbmVhckdyYWRpZW50IGlkPSJiIiB4MT0iMTIuOTYiIHkxPSIxMC41IiB4Mj0iMTIuOTYiIHkyPSIxMi45MiIgZ3JhZGllbnRVbml0cz0idXNlclNwYWNlT25Vc2UiPjxzdG9wIG9mZnNldD0iMCIgc3RvcC1jb2xvcj0iIzMzMzEzMiIvPjxzdG9wIG9mZnNldD0iMSIgc3RvcC1jb2xvcj0iIzViNWE1YyIvPjwvbGluZWFyR3JhZGllbnQ+PC9kZWZzPjxwYXRoIGQ9Ik0xNi4yMiA3LjQ0QTQuMTkgNC4xOSAwIDAwMTQgNi4zMmE0LjkxIDQuOTEgMCAwMC01LjEtNC43IDUuMDcgNS4wNyAwIDAwLTQuODQgMy4yOUE0LjYyIDQuNjIgMCAwMDAgOS4zOWE0LjczIDQuNzMgMCAwMDQuODkgNC41NGg4LjU2YTQgNCAwIDAwMy45Mi0zLjgxIDMuNjcgMy42NyAwIDAwLTEuMTQtMi42MyIgZmlsbD0idXJsKCNhKSIvPjxwYXRoIGZpbGw9IiM3Njc2NzYiIGQ9Ik0xMC4wNyA2LjIybC4wMSA0LjI4IDcuOTEgMS42OFY5LjJsLTcuOTItMi45OHoiLz48cGF0aCBmaWxsPSIjOTk5IiBkPSJNMTAuMDcgNi4yMmwtMi4xNCAxLjN2My45OGwyLjE1LTEiLz48cGF0aCBmaWxsPSIjYTNhM2EzIiBkPSJNMTMuNjggMTAuNTZsLjcyLjJWOC40M2wtLjcyLS4yNXYyLjM4em0tLjcyLTIuNjFsLS43Mi0uMjZ2Mi40OWwuNzIuMlY3Ljk1em0yLjE2IDNsLjcuMTkuMDItMi4yMi0uNzItLjI0djIuMjd6bS00LjMxLTEuMTRsLjcyLjE4VjcuNDZsLS43Mi0uMjR2Mi41OXptNi40Ni0uNGwtLjcyLS4yNXYyLjE3bC43Mi4yVjkuNDF6Ii8+PHBhdGggZGF0YS1uYW1lPSJQYXRoIDE1ODgiIGQ9Ik04LjY2IDEwLjQzbC0uMzYuMjFWNy44MWwuMzYtLjE5em0uNzEtMy4yMkw5IDcuNDV2Mi43NWwuMzctLjJ6IiBmaWxsPSIjYjNiM2IzIi8+PHBhdGggZmlsbD0idXJsKCNiKSIgZD0iTTE3Ljk5IDEyLjE4bC0yLjE2Ljc0LTcuOS0xLjQyIDIuMTUtMSA3LjkxIDEuNjh6Ii8+PHBhdGggZmlsbD0iIzc2NzY3NiIgZD0iTTE3Ljk5IDE1LjIzbC03Ljk1IDEuNTEuMDQtNS41OSA3LjkxIDEuNDd2Mi42MXoiLz48cGF0aCBmaWxsPSIjYTNhM2EzIiBkPSJNMTAuODEgMTUuODJ2LTMuNTVsLjcyLjA5djMuMzRsLS43Mi4xMnptMi4xNS0uMzZsLS43Mi4xM3YtMy4xNGwuNzIuMTF2Mi45em0uNzItLjExdi0yLjcybC43Mi4wOXYyLjVsLS43Mi4xM3ptMi4xNS0uMzhsLS43MS4xM3YtMi4yOWwuNzEuMTF2Mi4wNXptMS40Ni0uMjNsLS43NC4xM3YtMS44OGwuNjkuMDkuMDUgMS42NnoiLz48cGF0aCBkYXRhLW5hbWU9IlBhdGggMTU4OSIgZD0iTTcuOTMgMTUuNDZWMTIuMmwyLjE2LTF2NS42eiIgZmlsbD0iIzk5OSIvPjxwYXRoIGRhdGEtbmFtZT0iUGF0aCAxNTkwIiBkPSJNOC42MSAxNS40NWwtLjMyLS4xNnYtMi43NmwuMzItLjE1ek05LjM4IDEybC0uMzguMTl2My40OGwuMzcuMTlWMTJ6IiBmaWxsPSIjYjNiM2IzIi8+PC9zdmc+;dashed=1;dashPattern=1 1;sketch=0;strokeColor=#64D1ED;strokeWidth=5;fontSize=12;gradientColor=none;html=1;" parent="106" vertex="1">
                    <mxGeometry x="57" y="57.5" width="50" height="50" as="geometry"/>
                </mxCell>
                <mxCell id="116" value="" style="whiteSpace=wrap;html=1;shadow=0;dashed=1;dashPattern=1 1;strokeWidth=5;strokeColor=#64D1ED;" parent="1" vertex="1">
                    <mxGeometry x="209" y="480" width="651" height="250" as="geometry"/>
                </mxCell>
                <mxCell id="119" value="FirewallSubnet" style="points=[[0,0],[0.25,0],[0.5,0],[0.75,0],[1,0],[1,0.25],[1,0.5],[1,0.75],[1,1],[0.75,1],[0.5,1],[0.25,1],[0,1],[0,0.75],[0,0.5],[0,0.25]];outlineConnect=0;gradientColor=none;html=1;whiteSpace=wrap;fontSize=12;fontStyle=0;container=1;pointerEvents=0;collapsible=0;recursiveResize=0;shape=mxgraph.aws4.group;grIcon=mxgraph.aws4.group_security_group;grStroke=0;strokeColor=#147EBA;fillColor=#E6F2F8;verticalAlign=top;align=left;spacingLeft=30;fontColor=#147EBA;dashed=0;shadow=0;" parent="1" vertex="1">
                    <mxGeometry x="250" y="510" width="232" height="190" as="geometry"/>
                </mxCell>
                <mxCell id="120" value="Azure Firewall" style="aspect=fixed;html=1;points=[];align=center;image;fontSize=12;image=img/lib/azure2/networking/Web_Application_Firewall_Policies_WAF.svg;shadow=0;strokeWidth=3;dashed=1;" parent="119" vertex="1">
                    <mxGeometry x="95" y="72" width="68" height="68" as="geometry"/>
                </mxCell>
                <mxCell id="141" value="NextHop: VirtualAppliance" style="edgeStyle=none;html=1;strokeWidth=3;fontSize=16;endSize=7;targetPerimeterSpacing=0;exitX=0.334;exitY=1.001;exitDx=0;exitDy=0;exitPerimeter=0;" parent="1" source="50" edge="1">
                    <mxGeometry x="0.0099" relative="1" as="geometry">
                        <mxPoint x="392.2999999999997" y="434.06999999999994" as="sourcePoint"/>
                        <mxPoint x="381.4855713736051" y="582" as="targetPoint"/>
                        <mxPoint as="offset"/>
                    </mxGeometry>
                </mxCell>
                <mxCell id="139" value="Internet" style="aspect=fixed;perimeter=ellipsePerimeter;html=1;align=center;shadow=0;dashed=0;spacingTop=3;image;image=img/lib/active_directory/internet_cloud.svg;dashPattern=1 1;sketch=0;strokeColor=#64D1ED;strokeWidth=5;fontSize=16;gradientColor=none;" parent="1" vertex="1">
                    <mxGeometry x="90" y="640" width="81" height="51.03" as="geometry"/>
                </mxCell>
                <mxCell id="142" style="edgeStyle=none;html=1;entryX=1;entryY=0.75;entryDx=0;entryDy=0;strokeWidth=3;fontSize=16;endSize=7;targetPerimeterSpacing=0;startArrow=none;" parent="1" source="189" target="139" edge="1">
                    <mxGeometry relative="1" as="geometry"/>
                </mxCell>
                <mxCell id="144" value="Private Resolver Inbound" style="points=[[0,0],[0.25,0],[0.5,0],[0.75,0],[1,0],[1,0.25],[1,0.5],[1,0.75],[1,1],[0.75,1],[0.5,1],[0.25,1],[0,1],[0,0.75],[0,0.5],[0,0.25]];outlineConnect=0;gradientColor=none;html=1;whiteSpace=wrap;fontSize=12;fontStyle=0;container=1;pointerEvents=0;collapsible=0;recursiveResize=0;shape=mxgraph.aws4.group;grIcon=mxgraph.aws4.group_security_group;grStroke=0;strokeColor=#147EBA;fillColor=#E6F2F8;verticalAlign=top;align=left;spacingLeft=30;fontColor=#147EBA;dashed=0;shadow=0;" parent="1" vertex="1">
                    <mxGeometry x="519" y="513.76" width="188" height="186.24" as="geometry"/>
                </mxCell>
                <mxCell id="145" value="Private DNS Resolver" style="aspect=fixed;html=1;points=[];align=center;image;fontSize=12;image=img/lib/azure2/networking/DNS_Private_Resolver.svg;shadow=0;" parent="144" vertex="1">
                    <mxGeometry x="60" y="65" width="68" height="60" as="geometry"/>
                </mxCell>
                <mxCell id="146" value="Hub VNET" style="verticalLabelPosition=bottom;html=1;verticalAlign=top;align=center;strokeColor=none;fillColor=#00BEF2;shape=mxgraph.azure.virtual_network;pointerEvents=1;shadow=0;" parent="1" vertex="1">
                    <mxGeometry x="790" y="510" width="50" height="27.500000000000004" as="geometry"/>
                </mxCell>
                <mxCell id="147" value="Azure Private DNS Zone" style="aspect=fixed;html=1;points=[];align=center;image;fontSize=12;image=img/lib/azure2/networking/DNS_Zones.svg;shadow=0;" parent="1" vertex="1">
                    <mxGeometry x="760" y="590" width="50" height="50" as="geometry"/>
                </mxCell>
                <mxCell id="150" style="edgeStyle=none;html=1;strokeWidth=3;fontSize=16;endSize=7;targetPerimeterSpacing=0;" parent="1" source="149" target="145" edge="1">
                    <mxGeometry relative="1" as="geometry"/>
                </mxCell>
                <mxCell id="149" value="" style="sketch=0;aspect=fixed;html=1;points=[];align=center;image;fontSize=12;image=img/lib/mscae/DNS.svg;dashed=1;dashPattern=1 1;strokeColor=#64D1ED;strokeWidth=5;gradientColor=none;" parent="1" vertex="1">
                    <mxGeometry x="900" y="280" width="40" height="40" as="geometry"/>
                </mxCell>
                <mxCell id="166" value="Spoke 1" style="text;strokeColor=none;align=center;fillColor=none;html=1;verticalAlign=middle;whiteSpace=wrap;rounded=0;dashed=1;dashPattern=1 1;sketch=0;strokeWidth=12;fontSize=21;fontColor=#000000;fontStyle=1;rotation=-90;" parent="1" vertex="1">
                    <mxGeometry x="960" y="240" width="120" height="40" as="geometry"/>
                </mxCell>
                <mxCell id="167" value="Hub" style="text;strokeColor=none;align=center;fillColor=none;html=1;verticalAlign=middle;whiteSpace=wrap;rounded=0;dashed=1;dashPattern=1 1;sketch=0;strokeWidth=12;fontSize=21;fontColor=#000000;fontStyle=1" parent="1" vertex="1">
                    <mxGeometry x="840" y="668" width="120" height="40" as="geometry"/>
                </mxCell>
                <mxCell id="168" value="apps" style="aspect=fixed;html=1;points=[];align=center;image;fontSize=12;image=img/lib/azure2/other/Worker_Container_App.svg;perimeterSpacing=25;" parent="1" vertex="1">
                    <mxGeometry x="482" y="300" width="49.45" height="48" as="geometry"/>
                </mxCell>
                <mxCell id="169" value="" style="whiteSpace=wrap;html=1;shadow=0;dashed=1;dashPattern=1 1;strokeWidth=5;strokeColor=#64D1ED;" parent="1" vertex="1">
                    <mxGeometry x="70" y="770" width="910" height="210" as="geometry"/>
                </mxCell>
                <mxCell id="170" value="Spoke 2 VNET" style="verticalLabelPosition=bottom;html=1;verticalAlign=top;align=center;strokeColor=none;fillColor=#00BEF2;shape=mxgraph.azure.virtual_network;pointerEvents=1;shadow=0;" parent="1" vertex="1">
                    <mxGeometry x="895" y="910" width="50" height="27.500000000000004" as="geometry"/>
                </mxCell>
                <mxCell id="171" value="Infrastructure Subnet" style="points=[[0,0],[0.25,0],[0.5,0],[0.75,0],[1,0],[1,0.25],[1,0.5],[1,0.75],[1,1],[0.75,1],[0.5,1],[0.25,1],[0,1],[0,0.75],[0,0.5],[0,0.25]];outlineConnect=0;gradientColor=none;html=1;whiteSpace=wrap;fontSize=12;fontStyle=0;container=1;pointerEvents=0;collapsible=0;recursiveResize=0;shape=mxgraph.aws4.group;grIcon=mxgraph.aws4.group_security_group;grStroke=0;strokeColor=#147EBA;fillColor=#E6F2F8;verticalAlign=top;align=right;spacingLeft=30;fontColor=#147EBA;dashed=0;shadow=0;labelPosition=center;verticalLabelPosition=middle;flipH=1;spacingRight=34;" parent="1" vertex="1">
                    <mxGeometry x="300" y="800" width="300" height="150" as="geometry"/>
                </mxCell>
                <mxCell id="172" value="Azure Container&lt;br&gt;App Environment" style="aspect=fixed;html=1;points=[];align=center;image;fontSize=12;image=img/lib/azure2/other/Container_App_Environments.svg;shadow=0;" parent="171" vertex="1">
                    <mxGeometry x="40" y="34" width="68" height="68" as="geometry"/>
                </mxCell>
                <mxCell id="173" value="Application Gateway Subnet" style="points=[[0,0],[0.25,0],[0.5,0],[0.75,0],[1,0],[1,0.25],[1,0.5],[1,0.75],[1,1],[0.75,1],[0.5,1],[0.25,1],[0,1],[0,0.75],[0,0.5],[0,0.25]];outlineConnect=0;gradientColor=none;html=1;whiteSpace=wrap;fontSize=12;fontStyle=0;container=1;pointerEvents=0;collapsible=0;recursiveResize=0;shape=mxgraph.aws4.group;grIcon=mxgraph.aws4.group_security_group;grStroke=0;strokeColor=#147EBA;fillColor=#E6F2F8;verticalAlign=top;align=left;spacingLeft=30;fontColor=#147EBA;dashed=0;shadow=0;" parent="1" vertex="1">
                    <mxGeometry x="630" y="798.5" width="222" height="151" as="geometry"/>
                </mxCell>
                <mxCell id="174" value="Azure Application Gateway&#10;" style="shape=image;verticalLabelPosition=bottom;verticalAlign=top;imageAspect=1;aspect=fixed;image=data:image/svg+xml,PHN2ZyB4bWxucz0iaHR0cDovL3d3dy53My5vcmcvMjAwMC9zdmciIHZpZXdCb3g9IjAgMCAxOCAxOCI+PGRlZnM+PGxpbmVhckdyYWRpZW50IGlkPSJiIiB4MT0iOSIgeTE9IjE5LjQ1IiB4Mj0iOSIgeTI9Ii0uNjUiIGdyYWRpZW50VHJhbnNmb3JtPSJyb3RhdGUoNDUgOS4wMDMgOC45OTkpIiBncmFkaWVudFVuaXRzPSJ1c2VyU3BhY2VPblVzZSI+PHN0b3Agb2Zmc2V0PSIwIiBzdG9wLWNvbG9yPSIjNWU5NjI0Ii8+PHN0b3Agb2Zmc2V0PSIuMTQiIHN0b3AtY29sb3I9IiM2MjljMjUiLz48c3RvcCBvZmZzZXQ9IjEiIHN0b3AtY29sb3I9IiM3NmJjMmQiLz48L2xpbmVhckdyYWRpZW50PjxsaW5lYXJHcmFkaWVudCBpZD0iYSIgeDE9IjcuNTEiIHkxPSI2LjM5IiB4Mj0iNy41IiB5Mj0iNS4xMSIgZ3JhZGllbnRVbml0cz0idXNlclNwYWNlT25Vc2UiPjxzdG9wIG9mZnNldD0iMCIgc3RvcC1jb2xvcj0iI2NjYyIvPjxzdG9wIG9mZnNldD0iLjEyIiBzdG9wLWNvbG9yPSIjZDdkN2Q3Ii8+PHN0b3Agb2Zmc2V0PSIuNDIiIHN0b3AtY29sb3I9IiNlYmViZWIiLz48c3RvcCBvZmZzZXQ9Ii43MiIgc3RvcC1jb2xvcj0iI2Y4ZjhmOCIvPjxzdG9wIG9mZnNldD0iMSIgc3RvcC1jb2xvcj0iI2ZjZmNmYyIvPjwvbGluZWFyR3JhZGllbnQ+PGxpbmVhckdyYWRpZW50IGlkPSJjIiB4MT0iOS4zNyIgeTE9IjcuNjciIHgyPSI5LjM3IiB5Mj0iNi41MiIgaHJlZj0iI2EiLz48L2RlZnM+PHJlY3QgeD0iMi43IiB5PSIyLjciIHdpZHRoPSIxMi42IiBoZWlnaHQ9IjEyLjYiIHJ4PSIuNTgiIHRyYW5zZm9ybT0icm90YXRlKC00NSA4Ljk5OSA5LjAwMykiIGZpbGw9InVybCgjYikiLz48ZyBmaWxsPSIjZmZmIj48cGF0aCBkPSJNMTAuOTMgMTAuNTRoMi44OWEuMTEuMTEgMCAwMC4xMS0uMTFWNy41NGEuMS4xIDAgMDAtLjE4LS4wN2wtLjguNzl2LjA2YS4xMS4xMSAwIDAxLS4xNSAwTDkuMjcgNC44M2EuMTEuMTEgMCAwMC0uMTUgMGwtLjkuOWEuMTEuMTEgMCAwMDAgLjE1bDMuNDkgMy40OGEuMTEuMTEgMCAwMTAgLjE1bC0uMDYuMDUtLjc5LjhhLjEuMSAwIDAwLjA3LjE4eiIvPjxwYXRoIGQ9Ik02Ljg3IDEwLjU0SDRhLjExLjExIDAgMDEtLjEtLjExVjcuNTRhLjEuMSAwIDAxLjE4LS4wN2wuNzkuNzkuMDYuMDZhLjEuMSAwIDAwLjE0IDBsMy40Ny0zLjQ5YS4xMS4xMSAwIDAxLjE1IDBsLjg5LjlhLjA5LjA5IDAgMDEwIC4xNUw2LjEgOS4zNmEuMTEuMTEgMCAwMDAgLjE1bC4wNS4wNS44LjhhLjExLjExIDAgMDEtLjA4LjE4eiIvPjxwYXRoIGQ9Ik02Ljc4IDEzLjE2bDIgMmEuMTEuMTEgMCAwMC4xNSAwbDItMmEuMS4xIDAgMDAtLjA3LS4xOEg5Ljc0YS4xMS4xMSAwIDAxLS4xMS0uMVY4YS4xLjEgMCAwMC0uMS0uMTFIOC4yNmEuMS4xIDAgMDAtLjEuMTF2NC45M2EuMTEuMTEgMCAwMS0uMTEuMWgtMS4yYS4xLjEgMCAwMC0uMDcuMTN6Ii8+PC9nPjxwYXRoIGQ9Ik0xMC42OCA3Ljc1QTIuNzYgMi43NiAwIDExNy4zIDMuMzlhMi43NiAyLjc2IDAgMDEzLjM1IDQuMzgiIGZpbGw9IiMwMDc4ZDQiLz48Y2lyY2xlIGN4PSI3LjUiIGN5PSI1LjQ4IiByPSIuODgiIGZpbGw9InVybCgjYSkiLz48cGF0aCBkPSJNNi42MiA3YTIgMiAwIDAwLjIuM2MuMDYuMDguMTIuMTQuMTguMjFhNi4xNiA2LjE2IDAgMDEuMzUtMS4xMi44NS44NSAwIDAxLS40Ni0uMjQgNS42MiA1LjYyIDAgMDAtLjI3Ljg1em0uNTktMi4zNWE0LjIxIDQuMjEgMCAwMS0uMjMtMSAzLjI3IDMuMjcgMCAwMC0uMzUuNDggNC41NSA0LjU1IDAgMDAuMTguNzYuODEuODEgMCAwMS40LS4yNHptLjk0IDEuNDNhLjg5Ljg5IDAgMDEtLjQ4LjI3IDMuMjEgMy4yMSAwIDAwLjQ3LjQxIDMuNTkgMy41OSAwIDAwLjY2LjQxdi0uMDhhLjU4LjU4IDAgMDEuMi0uNDEgMy40NiAzLjQ2IDAgMDEtLjg1LS42em0yLjY4IDEuMDhhMy43NCAzLjc0IDAgMDEtLjg5LS4xLjU2LjU2IDAgMDEtLjE2LjQgNCA0IDAgMDAxLjEuMDggMi4xNiAyLjE2IDAgMDAuMzctLjQzeiIgb3BhY2l0eT0iLjU1IiBmaWxsPSIjZjJmMmYyIi8+PGNpcmNsZSBjeD0iOS4zNyIgY3k9IjcuMDkiIHI9Ii41NyIgZmlsbD0idXJsKCNjKSIvPjxjaXJjbGUgY3g9IjEwLjY4IiBjeT0iNS42NyIgcj0iLjYxIiBmaWxsPSIjZjJmMmYyIi8+PHBhdGggZD0iTTkuMjIgNC4zMmE0LjQzIDQuNDMgMCAwMTEuOTItLjQ3IDMgMyAwIDAwLS40OC0uNDcgNC45IDQuOSAwIDAwLTEuNTIuMzYgMi45MSAyLjkxIDAgMDAtLjMuMTdBNS40NSA1LjQ1IDAgMDE4LjE5IDNhMi42NyAyLjY3IDAgMDAtLjM2LjE0IDYuMSA2LjEgMCAwMC42NyAxIDQuMDUgNC4wNSAwIDAwLS42OC41Ni44OS44OSAwIDAxLjQzLjMgMy40NyAzLjQ3IDAgMDEuNjMtLjQ5IDEwLjI1IDEwLjI1IDAgMDAxLjE5IDEgLjU3LjU3IDAgMDEuMi0uMzIgNy44MSA3LjgxIDAgMDEtMS4wNS0uODd6TTExLjYgNmgtLjE4bC0uMTEtLjA2YS41Mi41MiAwIDAxLS4yLjNsLjEyLjA3YS40MS40MSAwIDAwLjExLjA3bC4yOC4xNWEyLjM3IDIuMzcgMCAwMC4wOS0uMzZ6IiBvcGFjaXR5PSIuNTUiIGZpbGw9IiNmMmYyZjIiLz48Y2lyY2xlIGN4PSI3LjUiIGN5PSI1LjQ4IiByPSIuODgiIGZpbGw9IiNmMmYyZjIiLz48Y2lyY2xlIGN4PSI5LjM3IiBjeT0iNy4wOSIgcj0iLjU3IiBmaWxsPSIjZjJmMmYyIi8+PC9zdmc+;shadow=0;" parent="173" vertex="1">
                    <mxGeometry x="81.5" y="40" width="59" height="59" as="geometry"/>
                </mxCell>
                <mxCell id="175" value="Private Link. Subnet" style="points=[[0,0],[0.25,0],[0.5,0],[0.75,0],[1,0],[1,0.25],[1,0.5],[1,0.75],[1,1],[0.75,1],[0.5,1],[0.25,1],[0,1],[0,0.75],[0,0.5],[0,0.25]];outlineConnect=0;gradientColor=none;html=1;whiteSpace=wrap;fontSize=12;fontStyle=0;container=1;pointerEvents=0;collapsible=0;recursiveResize=0;shape=mxgraph.aws4.group;grIcon=mxgraph.aws4.group_security_group;grStroke=0;strokeColor=#147EBA;fillColor=#E6F2F8;verticalAlign=top;align=left;spacingLeft=30;fontColor=#147EBA;dashed=0;shadow=0;" parent="1" vertex="1">
                    <mxGeometry x="102" y="800" width="168" height="150" as="geometry"/>
                </mxCell>
                <mxCell id="176" value="Azure Container Registry" style="shape=image;verticalLabelPosition=bottom;verticalAlign=top;imageAspect=1;aspect=fixed;image=data:image/svg+xml,PHN2ZyBkYXRhLW5hbWU9ImZsdWVudF9pY29ucyIgeG1sbnM9Imh0dHA6Ly93d3cudzMub3JnLzIwMDAvc3ZnIiB2aWV3Qm94PSIwIDAgMTggMTgiPjxkZWZzPjxsaW5lYXJHcmFkaWVudCBpZD0iYSIgeDE9IjguNjciIHkxPSIxNy41NCIgeDI9IjguNjciIHkyPSItMS4xOSIgZ3JhZGllbnRVbml0cz0idXNlclNwYWNlT25Vc2UiPjxzdG9wIG9mZnNldD0iMCIgc3RvcC1jb2xvcj0iIzAwNzhkNCIvPjxzdG9wIG9mZnNldD0iLjE2IiBzdG9wLWNvbG9yPSIjMTM4MGRhIi8+PHN0b3Agb2Zmc2V0PSIuNTMiIHN0b3AtY29sb3I9IiMzYzkxZTUiLz48c3RvcCBvZmZzZXQ9Ii44MiIgc3RvcC1jb2xvcj0iIzU1OWNlYyIvPjxzdG9wIG9mZnNldD0iMSIgc3RvcC1jb2xvcj0iIzVlYTBlZiIvPjwvbGluZWFyR3JhZGllbnQ+PGxpbmVhckdyYWRpZW50IGlkPSJiIiB4MT0iMTIuOTYiIHkxPSIxMC41IiB4Mj0iMTIuOTYiIHkyPSIxMi45MiIgZ3JhZGllbnRVbml0cz0idXNlclNwYWNlT25Vc2UiPjxzdG9wIG9mZnNldD0iMCIgc3RvcC1jb2xvcj0iIzMzMzEzMiIvPjxzdG9wIG9mZnNldD0iMSIgc3RvcC1jb2xvcj0iIzViNWE1YyIvPjwvbGluZWFyR3JhZGllbnQ+PC9kZWZzPjxwYXRoIGQ9Ik0xNi4yMiA3LjQ0QTQuMTkgNC4xOSAwIDAwMTQgNi4zMmE0LjkxIDQuOTEgMCAwMC01LjEtNC43IDUuMDcgNS4wNyAwIDAwLTQuODQgMy4yOUE0LjYyIDQuNjIgMCAwMDAgOS4zOWE0LjczIDQuNzMgMCAwMDQuODkgNC41NGg4LjU2YTQgNCAwIDAwMy45Mi0zLjgxIDMuNjcgMy42NyAwIDAwLTEuMTQtMi42MyIgZmlsbD0idXJsKCNhKSIvPjxwYXRoIGZpbGw9IiM3Njc2NzYiIGQ9Ik0xMC4wNyA2LjIybC4wMSA0LjI4IDcuOTEgMS42OFY5LjJsLTcuOTItMi45OHoiLz48cGF0aCBmaWxsPSIjOTk5IiBkPSJNMTAuMDcgNi4yMmwtMi4xNCAxLjN2My45OGwyLjE1LTEiLz48cGF0aCBmaWxsPSIjYTNhM2EzIiBkPSJNMTMuNjggMTAuNTZsLjcyLjJWOC40M2wtLjcyLS4yNXYyLjM4em0tLjcyLTIuNjFsLS43Mi0uMjZ2Mi40OWwuNzIuMlY3Ljk1em0yLjE2IDNsLjcuMTkuMDItMi4yMi0uNzItLjI0djIuMjd6bS00LjMxLTEuMTRsLjcyLjE4VjcuNDZsLS43Mi0uMjR2Mi41OXptNi40Ni0uNGwtLjcyLS4yNXYyLjE3bC43Mi4yVjkuNDF6Ii8+PHBhdGggZGF0YS1uYW1lPSJQYXRoIDE1ODgiIGQ9Ik04LjY2IDEwLjQzbC0uMzYuMjFWNy44MWwuMzYtLjE5em0uNzEtMy4yMkw5IDcuNDV2Mi43NWwuMzctLjJ6IiBmaWxsPSIjYjNiM2IzIi8+PHBhdGggZmlsbD0idXJsKCNiKSIgZD0iTTE3Ljk5IDEyLjE4bC0yLjE2Ljc0LTcuOS0xLjQyIDIuMTUtMSA3LjkxIDEuNjh6Ii8+PHBhdGggZmlsbD0iIzc2NzY3NiIgZD0iTTE3Ljk5IDE1LjIzbC03Ljk1IDEuNTEuMDQtNS41OSA3LjkxIDEuNDd2Mi42MXoiLz48cGF0aCBmaWxsPSIjYTNhM2EzIiBkPSJNMTAuODEgMTUuODJ2LTMuNTVsLjcyLjA5djMuMzRsLS43Mi4xMnptMi4xNS0uMzZsLS43Mi4xM3YtMy4xNGwuNzIuMTF2Mi45em0uNzItLjExdi0yLjcybC43Mi4wOXYyLjVsLS43Mi4xM3ptMi4xNS0uMzhsLS43MS4xM3YtMi4yOWwuNzEuMTF2Mi4wNXptMS40Ni0uMjNsLS43NC4xM3YtMS44OGwuNjkuMDkuMDUgMS42NnoiLz48cGF0aCBkYXRhLW5hbWU9IlBhdGggMTU4OSIgZD0iTTcuOTMgMTUuNDZWMTIuMmwyLjE2LTF2NS42eiIgZmlsbD0iIzk5OSIvPjxwYXRoIGRhdGEtbmFtZT0iUGF0aCAxNTkwIiBkPSJNOC42MSAxNS40NWwtLjMyLS4xNnYtMi43NmwuMzItLjE1ek05LjM4IDEybC0uMzguMTl2My40OGwuMzcuMTlWMTJ6IiBmaWxsPSIjYjNiM2IzIi8+PC9zdmc+;dashed=1;dashPattern=1 1;sketch=0;strokeColor=#64D1ED;strokeWidth=5;fontSize=12;gradientColor=none;html=1;" parent="175" vertex="1">
                    <mxGeometry x="57" y="57.5" width="50" height="50" as="geometry"/>
                </mxCell>
                <mxCell id="177" value="" style="sketch=0;aspect=fixed;html=1;points=[];align=center;image;fontSize=12;image=img/lib/mscae/DNS.svg;dashed=1;dashPattern=1 1;strokeColor=#64D1ED;strokeWidth=5;gradientColor=none;" parent="1" vertex="1">
                    <mxGeometry x="900" y="830" width="40" height="40" as="geometry"/>
                </mxCell>
                <mxCell id="178" value="Spoke 2" style="text;strokeColor=none;align=center;fillColor=none;html=1;verticalAlign=middle;whiteSpace=wrap;rounded=0;dashed=1;dashPattern=1 1;sketch=0;strokeWidth=12;fontSize=21;fontColor=#000000;fontStyle=1;rotation=-90;" parent="1" vertex="1">
                    <mxGeometry x="960" y="854" width="120" height="40" as="geometry"/>
                </mxCell>
                <mxCell id="179" value="apps" style="aspect=fixed;html=1;points=[];align=center;image;fontSize=12;image=img/lib/azure2/other/Worker_Container_App.svg;perimeterSpacing=25;" parent="1" vertex="1">
                    <mxGeometry x="482" y="850" width="49.45" height="48" as="geometry"/>
                </mxCell>
                <mxCell id="180" value="Peering" style="aspect=fixed;html=1;points=[];align=center;image;fontSize=12;image=img/lib/azure2/networking/Bastions.svg;shadow=0;" parent="1" vertex="1">
                    <mxGeometry x="871" y="700" width="57.99999999999999" height="68" as="geometry"/>
                </mxCell>
                <mxCell id="181" value="Managed Identity for Registry" style="aspect=fixed;html=1;points=[];align=center;image;fontSize=12;image=img/lib/azure2/identity/Managed_Identities.svg;" parent="1" vertex="1">
                    <mxGeometry x="152" y="124" width="68" height="66" as="geometry"/>
                </mxCell>
                <mxCell id="183" value="Azure Managed Grafana" style="shape=image;verticalLabelPosition=bottom;verticalAlign=top;imageAspect=1;aspect=fixed;image=data:image/svg+xml,PHN2ZyB4bWxucz0iaHR0cDovL3d3dy53My5vcmcvMjAwMC9zdmciIHByZXNlcnZlQXNwZWN0UmF0aW89InhNaWRZTWlkIiB2aWV3Qm94PSIwIDAgMjU2IDI3OSI+PGRlZnM+PGxpbmVhckdyYWRpZW50IHgxPSI0OS45OTUlIiB5MT0iMTIyLjQ1JSIgeDI9IjQ5Ljk5NSUiIHkyPSIzMS4xMzklIiBpZD0iYSI+PHN0b3Agc3RvcC1jb2xvcj0iI0ZGRjEwMCIgb2Zmc2V0PSIwJSIvPjxzdG9wIHN0b3AtY29sb3I9IiNGMDVBMjgiIG9mZnNldD0iMTAwJSIvPjwvbGluZWFyR3JhZGllbnQ+PC9kZWZzPjxwYXRoIGQ9Ik0yNTUuNTkgMTIyLjc3NWMtLjQ2LTQuNjc1LTEuMjI2LTEwLjA0LTIuNzU5LTE2LjAxN2E5OC4wMSA5OC4wMSAwIDAwLTcuMjA0LTE5LjE2IDEwNi42OSAxMDYuNjkgMCAwMC0xMy40MTItMjAuNTRjLTIuMjIyLTIuNjgxLTQuNjc1LTUuMjg3LTcuMjgtNy44MTYgMy45MDgtMTUuNTU4LTQuNzUyLTI5LjA0Ni00Ljc1Mi0yOS4wNDYtMTQuOTQ1LS45Mi0yNC40NDggNC42NzUtMjcuOTczIDcuMjA0LS42MTMtLjIzLTEuMTUtLjUzNy0xLjc2My0uNzY3LTIuNTI5LS45OTYtNS4xMzUtMS45OTItNy44OTQtMi44MzVhMTMwLjM3NCAxMzAuMzc0IDAgMDAtOC4yNzctMi4zYy0yLjgzNS0uNjktNS42Ny0xLjIyNi04LjU4My0xLjY4Ni0uNTM3LS4wNzYtLjk5Ni0uMTUzLTEuNTMzLS4yM0MxNTcuNjQ2IDguNzM4IDEzOC45NDYgMCAxMzguOTQ2IDBjLTIwLjkyMiAxMy4yNTgtMjQuODMxIDMxLjgwNS0yNC44MzEgMzEuODA1cy0uMDc3LjM4My0uMjMgMS4wNzNjLTEuMTUuMzA3LTIuMjk5LjY5LTMuNDQ5Ljk5Ni0xLjYwOS40Ni0zLjIxOCAxLjA3My00Ljc1MSAxLjY4NmExMjMuMTEgMTIzLjExIDAgMDAtNC43NTIgMS45MTYgMTE3LjIwNSAxMTcuMjA1IDAgMDAtOS4zNSA0LjU5OWMtMi45ODkgMS42ODYtNS45IDMuNTI1LTguNzM3IDUuNDQxbC0uNzY2LS4zMDdjLTI4Ljk3LTExLjAzNi01NC42NDMgMi4yMjMtNTQuNjQzIDIuMjIzLTIuMzc2IDMwLjgwOSAxMS41NzIgNTAuMTk4IDE0LjMzMSA1My43MjQtLjY5IDEuOTE2LTEuMzAzIDMuODMyLTEuOTE2IDUuNzQ4LTIuMTQ2IDYuOTc0LTMuNzU1IDE0LjEwMS00Ljc1MSAyMS41MzUtLjE1NCAxLjA3My0uMzA3IDIuMTQ2LS4zODQgMy4yMTlDNy44OTQgMTQ2LjkxNiAwIDE3My45NyAwIDE3My45N2MyMi4zMDIgMjUuNjc0IDQ4LjM1OSAyNy4yODMgNDguMzU5IDI3LjI4M2wuMDc3LS4wNzZjMy4yOTUgNS45IDcuMTI3IDExLjQ5NSAxMS40MTkgMTYuNzgzYTExMS45MDQgMTExLjkwNCAwIDAwNS42NzEgNi4zNjJjLTguMTI0IDIzLjI5OCAxLjE1IDQyLjYxIDEuMTUgNDIuNjEgMjQuODMuOTIgNDEuMTU1LTEwLjg4MiA0NC42MDMtMTMuNTY0YTg0LjQ3MyA4NC40NzMgMCAwMDcuNTExIDIuMjIyIDEwOS43MDMgMTA5LjcwMyAwIDAwMjMuMjk4IDMuNDQ5YzEuOTE2LjA3NiAzLjkwOS4xNTMgNS44MjUuMDc2aDIuNzU5bDEuMjI2LS4wNzZ2LjA3NmMxMS43MjYgMTYuNzA4IDMyLjI2NSAxOS4wODQgMzIuMjY1IDE5LjA4NCAxNC42MzgtMTUuNDA1IDE1LjQ4LTMwLjczMyAxNS40OC0zNC4wMjh2LTEuMzhjMy4wNjYtMi4xNDUgNS45NzktNC40NDUgOC43MzgtNi45NzQgNS44MjQtNS4yODggMTAuOTU5LTExLjM0MiAxNS4yNS0xNy44NTdsMS4xNS0xLjgzOWMxNi41NTQuOTIgMjguMjgtMTAuMjcgMjguMjgtMTAuMjctMi43NTktMTcuMjQzLTEyLjU2OS0yNS42NzMtMTQuNjM4LTI3LjI4MyAwIDAtLjA3Ny0uMDc2LS4yMy0uMTUzLS4xNTMtLjA3Ny0uMTUzLS4xNTMtLjE1My0uMTUzLS4wNzctLjA3Ny0uMjMtLjE1NC0uMzgzLS4yMy4wNzYtMS4wNzMuMTUzLTIuMDcuMjMtMy4xNDIuMTUzLTEuODQuMTUzLTMuNzU2LjE1My01LjU5NXYtMi45MTNsLS4wNzctMS4xNDktLjA3Ni0xLjUzM2MwLS41MzYtLjA3Ny0uOTk2LS4xNTQtMS40NTYtLjA3Ni0uNDYtLjA3Ni0uOTk2LS4xNTMtMS40NTZsLS4xNTMtMS40NTYtLjIzLTEuNDU2Yy0uMzA3LTEuOTE2LS42MTMtMy43NTYtMS4wNzMtNS42NzItMS43NjMtNy40MzMtNC42NzUtMTQuNDg0LTguNDMtMjAuODQ1YTcwLjM3MyA3MC4zNzMgMCAwMC0xNC4wMjUtMTYuNzA3Yy01LjM2NS00Ljc1Mi0xMS40Mi04LjU4NC0xNy43MDQtMTEuNDItNi4zNi0yLjgzNS0xMi45NTItNC42NzUtMTkuNTQzLTUuNTE4LTMuMjk1LS40Ni02LjU5LS42MTMtOS44ODYtLjUzNmgtMi40NTNsLTEuMjI2LjA3N2MtLjQ2IDAtLjkyLjA3Ni0xLjMwMy4wNzZhNTEuOTU4IDUxLjk1OCAwIDAwLTQuOTgxLjY5Yy02LjU5MSAxLjIyNi0xMi43OTkgMy42MDItMTguMjQgNi44OTctNS40NDEgMy4yOTYtMTAuMTkzIDcuMzU4LTE0LjAyNSAxMS45NTZhNTQuNyA1NC43IDAgMDAtOC44OSAxNS4wMjEgNTIuODU3IDUyLjg1NyAwIDAwLTMuNTI1IDE2LjA5NGMtLjA3NyAxLjMwMy0uMDc3IDIuNjgzLS4wNzcgMy45ODZ2Ljk5NmwuMDc3IDEuMDczYy4wNzYuNjEzLjA3NiAxLjMwMy4xNTMgMS45MTYuMjMgMi42ODIuNzY2IDUuMjg4IDEuNDU2IDcuNzQgMS40NTYgNC45ODIgMy43NTUgOS41MDMgNi41OSAxMy4zMzUgMi44MzYgMy44MzIgNi4yODUgNi45NzUgOS44ODcgOS41MDQgMy42MDIgMi40NTIgNy41MSA0LjIxNSAxMS4zNDMgNS4zNjQgMy44MzIgMS4xNSA3LjY2NCAxLjYxIDExLjI2NiAxLjYxaDEuOTkyYy4yMyAwIC40NiAwIC42ODktLjA3Ny4zODMgMCAuNzY2LS4wNzcgMS4xNS0uMDc3LjA3NiAwIC4yMyAwIC4zMDYtLjA3NmwuMzgzLS4wNzdjLjIzIDAgLjQ2LS4wNzYuNjktLjA3Ni40Ni0uMDc3Ljg0My0uMTU0IDEuMzAzLS4yMy40Ni0uMDc3Ljg0My0uMTU0IDEuMjI2LS4zMDcuODQzLS4xNTMgMS42MS0uNDYgMi4zNzYtLjY5IDEuNTMzLS41MzYgMy4wNjYtMS4xNSA0LjM2OC0xLjgzOSAxLjM4LS42OSAyLjYwNi0xLjUzMyAzLjgzMi0yLjMuMzA3LS4yMy42OS0uNDU5Ljk5Ny0uNzY2IDEuMjI2LS45OTYgMS40NTYtMi44MzUuNDYtNC4wNjEtLjg0NC0xLjA3My0yLjM3Ni0xLjM4LTMuNjAzLS42OWwtLjkyLjQ2YTI0LjkxNCAyNC45MTQgMCAwMS0zLjI5NSAxLjM4Yy0xLjE1LjM4Mi0yLjM3NS42ODktMy42MDIuOTE5LS42MTMuMDc2LTEuMjI2LjE1My0xLjkxNi4yMy0uMzA2IDAtLjYxMy4wNzYtLjk5Ni4wNzZoLTEuODRjLS4zODMgMC0uNzY2IDAtMS4xNDktLjA3NmgtLjQ1OWMtLjE1MyAwLS4zODMgMC0uNTM2LS4wNzctLjM4My0uMDc3LS42OS0uMDc3LTEuMDczLS4xNTMtMi44MzYtLjM4My01LjY3MS0xLjIyNi04LjM1NC0yLjQ1M2EyOS4yNzUgMjkuMjc1IDAgMDEtNy43NC01LjA1OGMtMi4zNzYtMi4xNDYtNC40NDUtNC42NzUtNi4wNTUtNy41ODctMS42MS0yLjkxMi0yLjc1OS02LjEzMS0zLjI5NS05LjUwMy0uMjMtMS42ODYtLjM4My0zLjQ0OS0uMzA3LTUuMTM1IDAtLjQ2LjA3Ny0uOTIuMDc3LTEuMzh2LS42MTNjMC0uMjMuMDc3LS40Ni4wNzctLjY5LjA3Ni0uOTE5LjIzLTEuODM5LjM4My0yLjc1OCAxLjMwMy03LjM1OCA0Ljk4MS0xNC41NjIgMTAuNjUzLTIwLjAwMyAxLjQ1Ni0xLjM4IDIuOTg4LTIuNjA2IDQuNTk4LTMuNzU1YTMxLjcwNSAzMS43MDUgMCAwMTUuMjExLTIuOTkgMzUuNzM5IDM1LjczOSAwIDAxNS42NzItMi4wNjhjMS45MTUtLjUzNyAzLjkwOC0uODQ0IDUuOTc3LTEuMDczLjk5Ny0uMDc3IDEuOTkzLS4xNTQgMy4wNjYtLjE1NGgyLjM3NmwuODQzLjA3N2MyLjIyMi4xNTMgNC4zNjguNDYgNi41MTQuOTk2IDQuMjkyLjkyIDguNTA3IDIuNTMgMTIuNDE1IDQuNjc1IDcuODE4IDQuMzY5IDE0LjQ4NSAxMS4xMTMgMTguNTQ3IDE5LjIzNyAyLjA3IDQuMDYxIDMuNTI1IDguNDMgNC4yMTUgMTIuOTUxLjE1MyAxLjE1LjMwNyAyLjMuMzgzIDMuNDVsLjA3Ny44NDIuMDc3Ljg0M3YzLjI5NmMwIC41MzYtLjA3NyAxLjQ1Ni0uMDc3IDEuOTkyLS4wNzcgMS4yMjctLjIzIDIuNTMtLjM4MyAzLjc1NnMtLjM4MyAyLjQ1Mi0uNjEzIDMuNjc4YTQ5LjU0OCA0OS41NDggMCAwMS0uODQzIDMuNjAyIDY0LjEyOSA2NC4xMjkgMCAwMS0yLjMgNy4xMjggNjIuNDE3IDYyLjQxNyAwIDAxLTcuMjA0IDEzLjEwNWMtNS45IDguMTI0LTEzLjk0OCAxNC43MTUtMjMuMTQ0IDE4LjkzLTQuNTk5IDIuMDY5LTkuNDI3IDMuNjAyLTE0LjQwOCA0LjM2OC0yLjQ1My40Ni00Ljk4Mi42OS03LjUxMS43NjZoLTMuODMyYTM2LjA4IDM2LjA4IDAgMDEtNC4wNjItLjIzYy01LjM2NS0uMzgzLTEwLjY1My0xLjM3OS0xNS44NjQtMi44MzUtNS4xMzUtMS40NTYtMTAuMTE2LTMuNTI1LTE0Ljg2OC01Ljk3OC05LjQyNy01LjA1OC0xNy45MzMtMTEuOTU2LTI0LjUyNC0yMC4zMWE3OS4wMTUgNzkuMDE1IDAgMDEtOC41ODQtMTMuMzM0IDc5LjE5NyA3OS4xOTcgMCAwMS01LjY3MS0xNC42MzhjLTEuMzgtNS4wNTgtMi4yMjMtMTAuMTkzLTIuNjA2LTE1LjQwNWwtLjA3Ny0uOTk2di02LjgyMWMuMDc3LTIuNTI5LjMwNy01LjIxMS42MTQtNy44MTcuMzA2LTIuNjA2Ljc2Ni01LjI4OCAxLjMwMi03Ljg5NC41MzctMi42MDUgMS4xNS01LjIxMSAxLjkxNi03LjgxN2ExMDIuODU2IDEwMi44NTYgMCAwMTUuNDQyLTE0Ljc5MWM0LjM2OC05LjM1IDEwLjA0LTE3LjcwNCAxNi44Ni0yNC4zNzEgMS42ODYtMS42ODYgMy40NDktMy4yMiA1LjI4OC00Ljc1MmE3OC4xOTYgNzguMTk2IDAgMDE1Ljc0OC00LjEzOGMxLjkxNi0xLjMwMyAzLjk4NS0yLjQ1MyA2LjA1NS0zLjUyNmEzOS43NzMgMzkuNzczIDAgMDEzLjE0Mi0xLjUzMyAxMTExODg5Ni4wMzggMTExMTg4OTYuMDM4IDAgMDEzLjIxOS0xLjM3OWMyLjE0Ni0uOTIgNC4zNjgtMS42ODYgNi42NjctMi4zNzYuNTM3LS4xNTMgMS4xNS0uMzA2IDEuNjg2LS41MzYuNTM3LS4xNTQgMS4xNS0uMzA3IDEuNjg2LS40NiAxLjE1LS4zMDcgMi4zLS42MTMgMy40NS0uODQzLjUzNi0uMTUzIDEuMTQ5LS4yMyAxLjc2Mi0uMzgzLjYxMy0uMTU0IDEuMTUtLjIzIDEuNzYzLS4zODQuNjEzLS4wNzYgMS4xNS0uMjMgMS43NjItLjMwNmwuODQzLS4xNTMuOTItLjE1NGMuNjEzLS4wNzYgMS4xNS0uMTUzIDEuNzYzLS4yMy42OS0uMDc2IDEuMzAyLS4xNTMgMS45OTItLjIzLjUzNy0uMDc2IDEuNDU2LS4xNTMgMS45OTMtLjIzLjM4My0uMDc2Ljg0My0uMDc2IDEuMjI2LS4xNTNsLjg0My0uMDc2LjM4My0uMDc3aC40NmMuNjktLjA3NyAxLjMwMy0uMDc3IDEuOTkzLS4xNTNsLjk5Ni0uMDc3aC43NjdjLjUzNiAwIDEuMTQ5LS4wNzYgMS42ODUtLjA3NmE5OC45NDQgOTguOTQ0IDAgMDE2Ljc0NSAwYzQuNDQ1LjE1MyA4LjgxMy42OSAxMy4wMjggMS40NTYgOC41MDcgMS42MSAxNi40NzggNC4yOTEgMjMuNzU4IDcuODkzIDcuMjggMy41MjYgMTMuNzE5IDcuODk0IDE5LjM5IDEyLjY0Ni4zODMuMzA2LjY5LjYxMyAxLjA3My45Mi4zMDYuMzA2LjY5LjYxMy45OTYuOTIuNjkuNjEyIDEuMzAzIDEuMjI1IDEuOTkzIDEuODM4LjY5LjYxNCAxLjMwMyAxLjIyNyAxLjkxNiAxLjg0YTQ0LjMwMiA0NC4zMDIgMCAwMTEuODM5IDEuOTE2YzIuMzc2IDIuNTI5IDQuNTk4IDUuMDU4IDYuNTkgNy42NjRhOTguODk3IDk4Ljg5NyAwIDAxOS43MzQgMTUuMjVsLjQ2LjkyLjQ2LjkyYy4zMDYuNjEzLjYxMyAxLjIyNi44NDMgMS44NC4zMDYuNjEzLjUzNiAxLjE0OS44NDMgMS43NjIuMjMuNjEzLjUzNiAxLjE1Ljc2NiAxLjc2My45MiAyLjI5OSAxLjg0IDQuNTIxIDIuNTMgNi41OSAxLjE0OSAzLjM3MyAxLjk5MiA2LjM2MiAyLjY4MiA4Ljk2N2EyLjA0MyAyLjA0MyAwIDAwMi4yOTkgMS42MWMxLjE1LS4wNzcgMS45OTItLjk5NiAxLjk5Mi0yLjE0Ni4wNzctMi43NTkgMC02LjA1NC0uMzgzLTkuODF6IiBmaWxsPSJ1cmwoI2EpIi8+PC9zdmc+;" parent="1" vertex="1">
                    <mxGeometry x="519" y="124" width="67" height="67" as="geometry"/>
                </mxCell>
                <mxCell id="184" value="Log Analytics Workspace" style="aspect=fixed;html=1;points=[];align=center;image;fontSize=12;image=img/lib/azure2/management_governance/Log_Analytics_Workspaces.svg;" parent="1" vertex="1">
                    <mxGeometry x="697" y="124" width="64" height="64" as="geometry"/>
                </mxCell>
                <mxCell id="186" value="Application Insights" style="aspect=fixed;html=1;points=[];align=center;image;fontSize=12;image=img/lib/azure2/devops/Application_Insights.svg;" parent="1" vertex="1">
                    <mxGeometry x="864" y="124" width="44" height="63" as="geometry"/>
                </mxCell>
                <mxCell id="187" value="NextHop: VirtualAppliance" style="edgeStyle=none;html=1;strokeWidth=3;fontSize=16;endSize=7;targetPerimeterSpacing=0;exitX=0.334;exitY=1.001;exitDx=0;exitDy=0;exitPerimeter=0;" parent="1" target="120" edge="1">
                    <mxGeometry x="0.01" relative="1" as="geometry">
                        <mxPoint x="377.2300000000001" y="768.0000000000001" as="sourcePoint"/>
                        <mxPoint x="384.77557137360515" y="919.65" as="targetPoint"/>
                        <mxPoint as="offset"/>
                    </mxGeometry>
                </mxCell>
                <mxCell id="188" value="MCR" style="shape=image;verticalLabelPosition=bottom;verticalAlign=top;imageAspect=1;aspect=fixed;image=data:image/svg+xml,PHN2ZyBkYXRhLW5hbWU9ImZsdWVudF9pY29ucyIgeG1sbnM9Imh0dHA6Ly93d3cudzMub3JnLzIwMDAvc3ZnIiB2aWV3Qm94PSIwIDAgMTggMTgiPjxkZWZzPjxsaW5lYXJHcmFkaWVudCBpZD0iYSIgeDE9IjguNjciIHkxPSIxNy41NCIgeDI9IjguNjciIHkyPSItMS4xOSIgZ3JhZGllbnRVbml0cz0idXNlclNwYWNlT25Vc2UiPjxzdG9wIG9mZnNldD0iMCIgc3RvcC1jb2xvcj0iIzAwNzhkNCIvPjxzdG9wIG9mZnNldD0iLjE2IiBzdG9wLWNvbG9yPSIjMTM4MGRhIi8+PHN0b3Agb2Zmc2V0PSIuNTMiIHN0b3AtY29sb3I9IiMzYzkxZTUiLz48c3RvcCBvZmZzZXQ9Ii44MiIgc3RvcC1jb2xvcj0iIzU1OWNlYyIvPjxzdG9wIG9mZnNldD0iMSIgc3RvcC1jb2xvcj0iIzVlYTBlZiIvPjwvbGluZWFyR3JhZGllbnQ+PGxpbmVhckdyYWRpZW50IGlkPSJiIiB4MT0iMTIuOTYiIHkxPSIxMC41IiB4Mj0iMTIuOTYiIHkyPSIxMi45MiIgZ3JhZGllbnRVbml0cz0idXNlclNwYWNlT25Vc2UiPjxzdG9wIG9mZnNldD0iMCIgc3RvcC1jb2xvcj0iIzMzMzEzMiIvPjxzdG9wIG9mZnNldD0iMSIgc3RvcC1jb2xvcj0iIzViNWE1YyIvPjwvbGluZWFyR3JhZGllbnQ+PC9kZWZzPjxwYXRoIGQ9Ik0xNi4yMiA3LjQ0QTQuMTkgNC4xOSAwIDAwMTQgNi4zMmE0LjkxIDQuOTEgMCAwMC01LjEtNC43IDUuMDcgNS4wNyAwIDAwLTQuODQgMy4yOUE0LjYyIDQuNjIgMCAwMDAgOS4zOWE0LjczIDQuNzMgMCAwMDQuODkgNC41NGg4LjU2YTQgNCAwIDAwMy45Mi0zLjgxIDMuNjcgMy42NyAwIDAwLTEuMTQtMi42MyIgZmlsbD0idXJsKCNhKSIvPjxwYXRoIGZpbGw9IiM3Njc2NzYiIGQ9Ik0xMC4wNyA2LjIybC4wMSA0LjI4IDcuOTEgMS42OFY5LjJsLTcuOTItMi45OHoiLz48cGF0aCBmaWxsPSIjOTk5IiBkPSJNMTAuMDcgNi4yMmwtMi4xNCAxLjN2My45OGwyLjE1LTEiLz48cGF0aCBmaWxsPSIjYTNhM2EzIiBkPSJNMTMuNjggMTAuNTZsLjcyLjJWOC40M2wtLjcyLS4yNXYyLjM4em0tLjcyLTIuNjFsLS43Mi0uMjZ2Mi40OWwuNzIuMlY3Ljk1em0yLjE2IDNsLjcuMTkuMDItMi4yMi0uNzItLjI0djIuMjd6bS00LjMxLTEuMTRsLjcyLjE4VjcuNDZsLS43Mi0uMjR2Mi41OXptNi40Ni0uNGwtLjcyLS4yNXYyLjE3bC43Mi4yVjkuNDF6Ii8+PHBhdGggZGF0YS1uYW1lPSJQYXRoIDE1ODgiIGQ9Ik04LjY2IDEwLjQzbC0uMzYuMjFWNy44MWwuMzYtLjE5em0uNzEtMy4yMkw5IDcuNDV2Mi43NWwuMzctLjJ6IiBmaWxsPSIjYjNiM2IzIi8+PHBhdGggZmlsbD0idXJsKCNiKSIgZD0iTTE3Ljk5IDEyLjE4bC0yLjE2Ljc0LTcuOS0xLjQyIDIuMTUtMSA3LjkxIDEuNjh6Ii8+PHBhdGggZmlsbD0iIzc2NzY3NiIgZD0iTTE3Ljk5IDE1LjIzbC03Ljk1IDEuNTEuMDQtNS41OSA3LjkxIDEuNDd2Mi42MXoiLz48cGF0aCBmaWxsPSIjYTNhM2EzIiBkPSJNMTAuODEgMTUuODJ2LTMuNTVsLjcyLjA5djMuMzRsLS43Mi4xMnptMi4xNS0uMzZsLS43Mi4xM3YtMy4xNGwuNzIuMTF2Mi45em0uNzItLjExdi0yLjcybC43Mi4wOXYyLjVsLS43Mi4xM3ptMi4xNS0uMzhsLS43MS4xM3YtMi4yOWwuNzEuMTF2Mi4wNXptMS40Ni0uMjNsLS43NC4xM3YtMS44OGwuNjkuMDkuMDUgMS42NnoiLz48cGF0aCBkYXRhLW5hbWU9IlBhdGggMTU4OSIgZD0iTTcuOTMgMTUuNDZWMTIuMmwyLjE2LTF2NS42eiIgZmlsbD0iIzk5OSIvPjxwYXRoIGRhdGEtbmFtZT0iUGF0aCAxNTkwIiBkPSJNOC42MSAxNS40NWwtLjMyLS4xNnYtMi43NmwuMzItLjE1ek05LjM4IDEybC0uMzguMTl2My40OGwuMzcuMTlWMTJ6IiBmaWxsPSIjYjNiM2IzIi8+PC9zdmc+;" parent="1" vertex="1">
                    <mxGeometry x="90" y="500" width="80" height="80" as="geometry"/>
                </mxCell>
                <mxCell id="192" value="" style="edgeStyle=none;html=1;entryX=1;entryY=0.75;entryDx=0;entryDy=0;strokeWidth=3;fontSize=16;endSize=7;endArrow=none;" parent="1" source="120" target="189" edge="1">
                    <mxGeometry relative="1" as="geometry">
                        <mxPoint x="345" y="625.6717577472375" as="sourcePoint"/>
                        <mxPoint x="167.2524097383514" y="676.2344528403526" as="targetPoint"/>
                    </mxGeometry>
                </mxCell>
                <mxCell id="189" value="" style="html=1;verticalLabelPosition=bottom;align=center;labelBackgroundColor=#ffffff;verticalAlign=top;strokeWidth=2;strokeColor=#000000;shadow=0;dashed=0;shape=mxgraph.ios7.icons.privacy;fillColor=#FF170F;" parent="1" vertex="1">
                    <mxGeometry x="190" y="630" width="40" height="50.5" as="geometry"/>
                </mxCell>
                <mxCell id="193" style="edgeStyle=none;html=1;entryX=1;entryY=0.75;entryDx=0;entryDy=0;strokeWidth=5;" parent="1" source="120" target="188" edge="1">
                    <mxGeometry relative="1" as="geometry"/>
                </mxCell>
                <mxCell id="194" value="Azure KeyVault" style="shape=image;verticalLabelPosition=bottom;verticalAlign=top;imageAspect=1;aspect=fixed;image=data:image/svg+xml,PHN2ZyBkYXRhLW5hbWU9ImZsdWVudF9pY29ucyIgeG1sbnM9Imh0dHA6Ly93d3cudzMub3JnLzIwMDAvc3ZnIiB2aWV3Qm94PSIwIDAgMTggMTgiPjxkZWZzPjxyYWRpYWxHcmFkaWVudCBpZD0iYSIgY3g9IjkiIGN5PSI5IiByPSI4LjUiIGdyYWRpZW50VW5pdHM9InVzZXJTcGFjZU9uVXNlIj48c3RvcCBvZmZzZXQ9Ii4xOCIgc3RvcC1jb2xvcj0iIzVlYTBlZiIvPjxzdG9wIG9mZnNldD0iLjU2IiBzdG9wLWNvbG9yPSIjNWM5ZmVlIi8+PHN0b3Agb2Zmc2V0PSIuNjkiIHN0b3AtY29sb3I9IiM1NTljZWQiLz48c3RvcCBvZmZzZXQ9Ii43OCIgc3RvcC1jb2xvcj0iIzRhOTdlOSIvPjxzdG9wIG9mZnNldD0iLjg2IiBzdG9wLWNvbG9yPSIjMzk5MGU0Ii8+PHN0b3Agb2Zmc2V0PSIuOTMiIHN0b3AtY29sb3I9IiMyMzg3ZGUiLz48c3RvcCBvZmZzZXQ9Ii45OSIgc3RvcC1jb2xvcj0iIzA4N2JkNiIvPjxzdG9wIG9mZnNldD0iMSIgc3RvcC1jb2xvcj0iIzAwNzhkNCIvPjwvcmFkaWFsR3JhZGllbnQ+PHJhZGlhbEdyYWRpZW50IGlkPSJiIiBjeD0iMzguOTUiIGN5PSIxODIuMDciIHI9IjkuODgiIGdyYWRpZW50VHJhbnNmb3JtPSJtYXRyaXgoLjk0IDAgMCAuOTQgLTI4LjcxIC0xNjMuMjQpIiBncmFkaWVudFVuaXRzPSJ1c2VyU3BhY2VPblVzZSI+PHN0b3Agb2Zmc2V0PSIuMjciIHN0b3AtY29sb3I9IiNmZmQ3MGYiLz48c3RvcCBvZmZzZXQ9Ii40OSIgc3RvcC1jb2xvcj0iI2ZmY2IxMiIvPjxzdG9wIG9mZnNldD0iLjg4IiBzdG9wLWNvbG9yPSIjZmVhYzE5Ii8+PHN0b3Agb2Zmc2V0PSIxIiBzdG9wLWNvbG9yPSIjZmVhMTFiIi8+PC9yYWRpYWxHcmFkaWVudD48L2RlZnM+PHBhdGggZGF0YS1uYW1lPSJQYXRoIDQwIiBkPSJNOSAuNUE4LjUgOC41IDAgMTAxNy41IDkgOC41MSA4LjUxIDAgMDA5IC41em0wIDE1Ljg0QTcuMzQgNy4zNCAwIDExMTYuMzQgOSA3LjM0IDcuMzQgMCAwMTkgMTYuMzR6IiBmaWxsPSJ1cmwoI2EpIi8+PGNpcmNsZSBjeD0iOSIgY3k9IjkiIHI9IjcuMzQiIGZpbGw9IiNmZmYiLz48cGF0aCBkYXRhLW5hbWU9IlBhdGggMTQyNyIgZD0iTTEzLjQ0IDcuMzNhMS44NCAxLjg0IDAgMDAwLTIuNTlsLTMuMTUtMy4xNmExLjgzIDEuODMgMCAwMC0yLjU4IDBMNC41NiA0Ljc0YTEuODQgMS44NCAwIDAwMCAyLjU5TDcuMTggMTBhLjUxLjUxIDAgMDEuMTUuMzZ2NC44OGEuNjMuNjMgMCAwMC4xOC40NGwxLjIgMS4yYS40MS40MSAwIDAwLjU4IDBsMS4xNi0xLjE2LjY4LS42OGEuMjUuMjUgMCAwMDAtLjM0bC0uNDktLjQ5YS4yNy4yNyAwIDAxMC0uMzdsLjQ5LS40OWEuMjUuMjUgMCAwMDAtLjM0bC0uNDktLjQ5YS4yNy4yNyAwIDAxMC0uMzdsLjQ5LS40OWEuMjUuMjUgMCAwMDAtLjM0bC0uNjgtLjY5di0uMjV6TTkgMi4zNWExIDEgMCAwMTAgMi4wNyAxIDEgMCAxMTAtMi4wN3oiIGZpbGw9InVybCgjYikiLz48cGF0aCBkYXRhLW5hbWU9IlBhdGggMTQyOCIgZD0iTTguMTggMTUuM2EuMjMuMjMgMCAwMC4zOC0uMTd2LTRhLjI0LjI0IDAgMDAtLjExLS4yLjIyLjIyIDAgMDAtLjM0LjJ2NGEuMjguMjggMCAwMC4wNy4xN3oiIGZpbGw9IiNmZjkzMDAiIG9wYWNpdHk9Ii43NSIvPjxyZWN0IGRhdGEtbmFtZT0iUmVjdGFuZ2xlIDIwNzEiIHg9IjYuNDgiIHk9IjUuNzkiIHdpZHRoPSI1LjE3IiBoZWlnaHQ9Ii42MSIgcng9Ii4yOCIgZmlsbD0iI2ZmOTMwMCIgb3BhY2l0eT0iLjc1Ii8+PHJlY3QgZGF0YS1uYW1lPSJSZWN0YW5nbGUgMjA3MiIgeD0iNi40OCIgeT0iNi43OCIgd2lkdGg9IjUuMTciIGhlaWdodD0iLjYxIiByeD0iLjI4IiBmaWxsPSIjZmY5MzAwIiBvcGFjaXR5PSIuNzUiLz48L3N2Zz4=;" vertex="1" parent="1">
                    <mxGeometry x="340" y="124" width="73" height="73" as="geometry"/>
                </mxCell>
            </root>
        </mxGraphModel>
    </diagram>
</mxfile>